<?xml version="1.0" standalone="no"?>
<!DOCTYPE svg PUBLIC "-//W3C//DTD SVG 20010904//EN"
 "http://www.w3.org/TR/2001/REC-SVG-20010904/DTD/svg10.dtd">
<svg version="1.0" xmlns="http://www.w3.org/2000/svg"
 width="338.000000pt" height="338.000000pt" viewBox="0 0 338.000000 338.000000"
 preserveAspectRatio="xMidYMid meet">
<metadata>
Created by potrace 1.11, written by Peter Selinger 2001-2013
</metadata>
<g transform="translate(0.000000,338.000000) scale(0.100000,-0.100000)"
fill="#000000" stroke="none">
<path d="M848 2347 c-461 -177 -838 -324 -838 -327 0 -3 28 -15 63 -27 34 -11
113 -39 175 -61 l113 -41 16 33 c15 32 19 34 77 38 33 3 67 3 73 0 23 -8 3
-21 -42 -28 -24 -3 -48 -11 -53 -18 -13 -17 -116 -269 -152 -371 -70 -200
-111 -445 -78 -472 8 -7 43 -20 78 -29 69 -17 134 -14 194 11 43 18 41 4 62
400 9 165 19 322 22 349 l7 49 108 25 c60 13 111 22 113 19 16 -16 -19 -39
-94 -62 l-87 -28 34 -14 c46 -19 1034 -323 1051 -323 7 0 245 72 529 159 453
140 1151 377 1151 391 0 4 -1608 624 -1670 644 -8 3 -392 -140 -852 -317z"/>
<path d="M680 1398 c0 -161 4 -278 11 -303 33 -118 169 -221 388 -294 230 -76
544 -107 812 -81 330 33 593 124 720 251 86 86 89 101 89 421 0 147 -2 268 -5
268 -3 0 -230 -69 -505 -154 l-500 -154 -500 154 c-276 85 -503 154 -505 154
-3 0 -5 -118 -5 -262z"/>
</g>
</svg>
